<svg width="20" height="20" viewBox="0 0 20 20" fill="none" xmlns="http://www.w3.org/2000/svg">
<g clip-path="url(#clip0_754_1336)">
<path d="M18.3334 9.2333V9.99997C18.3324 11.797 17.7505 13.5455 16.6745 14.9848C15.5986 16.4241 14.0862 17.477 12.3629 17.9866C10.6396 18.4961 8.7978 18.4349 7.11214 17.8121C5.42648 17.1894 3.98729 16.0384 3.00922 14.5309C2.03114 13.0233 1.56657 11.24 1.68481 9.4469C1.80305 7.65377 2.49775 5.94691 3.66531 4.58086C4.83288 3.21482 6.41074 2.26279 8.16357 1.86676C9.91641 1.47073 11.7503 1.65192 13.3918 2.3833" stroke="#48BB78" stroke-width="1.75" stroke-linecap="round" stroke-linejoin="round"/>
<path d="M18.3333 3.33337L10 11.675L7.5 9.17504" stroke="#48BB78" stroke-width="1.75" stroke-linecap="round" stroke-linejoin="round"/>
</g>
<defs>
<clipPath id="clip0_754_1336">
<rect width="20" height="20" fill="white"/>
</clipPath>
</defs>
</svg>
