<svg xmlns="http://www.w3.org/2000/svg" viewBox="0 0 213.06 270.41" class="penguin"><g> <path fill="#231f20" d="M192.53 107.25c2.6-1.3 21.58 52.27 12.22 90.76-6.76 27.56 3 48-12.62 62.35-4.42 4.16-18.22 6.11-18.22 6.11-37.45 5.2-51.08 2.27-74.22.19s-22.1-12.74-29.13-15.34c-8.58-3.38-13.78 8.06-36.15 1.56-31.73-9.36-12-18.46-8.06-22.62 38.41-50.32 40.37-129.55 40.37-129.55 32.77-3.9 112 14.09 125.8 6.55"></path><path fill="#231f20" d="M124.62.3C99.65-2.31 77 13 72.61 16.42c-26.78 23.14-30.69 73.59 0 94.66 0 0 4.42-6 39-9.36 34.85-3.38 53.83-11.44 63.71-15.34 14-5.2 6.76-3.9 23.14-17.42"></path><path fill="#231f20" d="M198.47 69c16.12-13.26-14.94 2.62-32-38.75 0 0-6.76-26.26-41.87-29.91"></path><path fill="#fff" d="M126.37 57.18A16.9 16.9 0 11109.46 40a17.09 17.09 0 0116.9 17.16"></path><path fill="#231f20" d="M110.75 54.31a5.47 5.47 0 11-5.75-5.19h.27a5.44 5.44 0 015.46 5.2"></path><path fill="#fff" d="M105.77 131.54c-26.38 84.22 36.42 110.51 99.92 83.88 0 0 9.34-32.83 7-58-4.68-46.29-14.06-54.46-14.06-54.46-13 5.72-92.85 28.63-92.85 28.63"></path><path fill="#231f20" d="M192.53 108.27c2.6-1.3 21.58 52.27 12.22 90.76-6.76 27.56 3 48-12.62 62.35-4.42 4.16-18.22 6.11-18.22 6.11-37.45 5.2-51.08 2.27-74.22.19s-22.1-12.74-29.13-15.34C62 249 56.79 260.4 34.42 253.9c-31.73-9.36-12-18.46-8.06-22.62 47.33-48.89 51.49-93.36 51.49-93.36 32.77-3.9 100.9-22.1 114.68-29.65"></path><path fill="#fff" d="M105.77 132.57c-26.38 84.22 36.42 110.51 99.92 83.88 0 0 9.34-32.83 7-58-4.68-46.29-14.06-54.46-14.06-54.46-13 5.72-92.85 28.63-92.85 28.63"></path><path fill="#231f20" d="M124.62 1.32c-25-2.6-47.59 12.74-52 16.12-26.8 23.14-30.7 73.56 0 94.66 0 0 4.42-6 39-9.36 34.85-3.38 53.83-11.44 63.71-15.34 14-5.2 6.76-3.9 23.14-17.42"></path><path fill="#231f20" d="M198.47 70c16.12-13.26-19.5 2.86-32-38.75 0 0-6.76-26.26-41.87-29.91"></path><path fill="#fff" d="M126.37 58.2A16.9 16.9 0 11109.46 41a17.09 17.09 0 0116.9 17.16"></path><path fill="#231f20" d="M110.75 55.33a5.47 5.47 0 11-5.75-5.19h.27a5.44 5.44 0 015.46 5.2"></path><path fill="#0f4e91" d="M56.92 92.88c-7.45 0-4.69 13.8-7.45 26.21-1.38 6.62 21.06 5 27.13-4.71 1.1-2.21-19.68-21.5-19.68-21.5M49.53 139.85c0 18.21-5 29-16.55 47.18S10.07 214.9 3.73 223.45C-2.34 232-1 234.21 7.59 235s16.5 3.23 24.23-5.88 27.37-35 34.54-52.62 9.64-26.71 11.86-38.3-33.66 1.66-33.66 1.66"></path><path fill="#0f4e91" d="M185.71 81.09c6.9-5.39 15.88 18.28 15.88 23s-25.65 11.64-39.67 15.74-63.6 17.25-84.08 19c-16.6 1.51-28.67 5.17-36.43 7.11a85.16 85.16 0 00-15.52 9.27c-13.8 10.13-31.89 9.7-19.19-4.53 12.5-14.23.65-9.05 19.19-18.32s38.46-14.25 43-19c0 0 20.27-10.86 37.65-11.62 6.68 1.29 67.55-11.6 79.19-20.65"></path><path fill="#fdd700" d="M149.24 94.15l13.29-4.01 9.77 26.7-16.67 4.79-6.39-27.48zM118.33 100.78l14.07-2.39 3.47 28.48-16.49 4.05-1.05-30.14zM76.21 109.88l13.26-4.92 6.36 31.1-17.99 2.76-1.63-28.94zM46.9 123.34l11.53-4.43 1.84 22.47-16.67 3.99 3.3-22.03zM30.35 152.12l1.47-22.92-13.31 7L20 158.82s7-3.59 10.35-6.7zM47.65 156.78l-5.31 14.12 25.38 1.96 5.8-15.34-25.87-.74zM31.82 188.82l-9.73 13.31 24.83 7.24 9.73-14.43-24.83-6.12z"></path></g></svg>